{"title":"HUNTSMAN WINTERS WAR Extended Cut (2016) HQ1080p Blu-ray-DDR","uid":15446353,"size":14800938263,"categoryP":"video","categoryS":"hd___movies","magnet":"?xt=urn:btih:c0afd245b241faa72ac2ce58b194deca148fd25f&amp;dn=HUNTSMAN+WINTERS+WAR+Extended+Cut+%282016%29+HQ1080p+Blu-ray-DDR&amp;tr=udp%3A%2F%2Ftracker.leechers-paradise.org%3A6969&amp;tr=udp%3A%2F%2Fzer0day.ch%3A1337&amp;tr=udp%3A%2F%2Fopen.demonii.com%3A1337&amp;tr=udp%3A%2F%2Ftracker.coppersurfer.tk%3A6969&amp;tr=udp%3A%2F%2Fexodus.desync.com%3A6969","seeders":9,"leechers":9,"uploader":"SaM","files":3,"time":1469889450,"description":"** Huntsman Winter War**\r\n\r\n** 2016 **\r\n** HQ 1080p / Blu-Ray / x264 / DTS-5.1 Hindi**\r\n\r\n** Multi Subtitle(s) **\r\n\r\n\r\n\r\n[ SCREENS ]\r\n[ Transparency encode plz dont cuz shit will still remain shit if transparently encoded\r\nand anyone can just push the slider in x264 to veryslow or placebo and get transparency. ]\r\n\r\n\r\nSource Screenshots\r\n \nhttp://extraimago.com/image/w8t9 \nhttp://extraimago.com/image/w8tU \nhttp://extraimago.com/image/w8tM\r\n\r\nDDR Encode Screenshots\r\n \nhttp://extraimago.com/image/w8td \nhttp://extraimago.com/image/w8th \nhttp://extraimago.com/image/w8tb\r\n\r\n[ Info ]\r\nSource : DDR Blu-ray BD50\r\nFormat : Matroska\r\nFile size : 11.0 GiB\r\nDuration : 2h 0mn\r\nOverall bit rate : 13.1 Mbps\r\nEncoded date : UTC 2016-07-29 23:52:35\r\n\r\nFormat : AVC\r\nFormat/Info : Advanced Video Codec\r\nFormat profile :   \r\nFormat settings, CABAC : Yes\r\nFormat settings, ReFrames : 5 frames\r\nCodec ID : V_MPEG4/ISO/AVC\r\nDuration : 2h 0mn\r\nBit rate : 12.3 Mbps\r\nWidth : 1 920 pixels\r\nHeight : 800 pixels\r\nDisplay aspect ratio : 2.40:1\r\nFrame rate mode : Constant\r\nFrame rate : 23.976 (24000/1001) fps\r\nColor space : YUV\r\nChroma subsampling : 4:2:0\r\nBit depth : 8 bits\r\nScan type : Progressive\r\nBits/(Pixel*Frame) : 0.334\r\nStream size : 10.3 GiB (94%)\r\nLanguage : English\r\nDefault : Yes\r\nForced : No\r\nColor range : Limited\r\nColor primaries : BT.709\r\nTransfer characteristics : BT.709\r\nMatrix coefficients : BT.709\r\n\r\n\r\nAudio\r\nFormat : DTS\r\nFormat/Info : Digital Theater Systems\r\nMode : 16\r\nFormat settings, Endianness : Big\r\nCodec ID : A_DTS\r\nDuration : 2h 0mn\r\nBit rate mode : Constant\r\nBit rate : 768 Kbps\r\nChannel(s) : 6 channels\r\nChannel positions : Front: L C R, Side: L R, LFE\r\nSampling rate : 48.0 KHz\r\nFrame rate : 93.750 fps (512 spf)\r\nBit depth : 24 bits\r\nCompression mode : Lossy\r\nStream size : 660 MiB (6%)\r\nLanguage : Hindi\r\nDefault : Yes\r\nForced : No\r\n\r\nFormat : VobSub\r\nMuxing mode : zlib\r\nCodec ID : S_VOBSUB\r\nCodec ID/Info : Picture based subtitle format used on DVDs\r\nDuration : 1h 49mn\r\nBit rate : 4 249 bps\r\nCount of elements : 1322\r\nStream size : 3.33 MiB (0%)\r\nLanguage : English\r\nDefault : Yes\r\nForced : No\r\n\r\n\r\nText #5\r\nID : 7\r\nFormat : VobSub\r\nMuxing mode : zlib\r\nCodec ID : S_VOBSUB\r\nCodec ID/Info : Picture based subtitle format used on DVDs\r\nDuration : 1h 59mn\r\nBit rate : 3 087 bps\r\nCount of elements : 1098\r\nStream size : 2.64 MiB (0%)\r\nLanguage : Hindi\r\nDefault : No\r\nForced : No\r\n\r\n\r\n[ A DDR Exclusive HQ Encode !!!]","torrent":{"xt":"urn:btih:c0afd245b241faa72ac2ce58b194deca148fd25f","amp;dn":"HUNTSMAN+WINTERS+WAR+Extended+Cut+%282016%29+HQ1080p+Blu-ray-DDR","amp;tr":["udp%3A%2F%2Ftracker.leechers-paradise.org%3A6969","udp%3A%2F%2Fzer0day.ch%3A1337","udp%3A%2F%2Fopen.demonii.com%3A1337","udp%3A%2F%2Ftracker.coppersurfer.tk%3A6969","udp%3A%2F%2Fexodus.desync.com%3A6969"],"infoHash":"c0afd245b241faa72ac2ce58b194deca148fd25f","infoHashBuffer":{"type":"Buffer","data":[192,175,210,69,178,65,250,167,42,194,206,88,177,148,222,202,20,143,210,95]},"announce":[],"urlList":[]}}